<?xml version="1.0" standalone="no"?>
<!DOCTYPE svg PUBLIC "-//W3C//DTD SVG 20010904//EN"
 "http://www.w3.org/TR/2001/REC-SVG-20010904/DTD/svg10.dtd">
<svg version="1.0" xmlns="http://www.w3.org/2000/svg"
 width="130.000000pt" height="130.000000pt" viewBox="0 0 130.000000 130.000000"
 preserveAspectRatio="xMidYMid meet">

<g transform="translate(0.000000,130.000000) scale(0.100000,-0.100000)"
fill="#000000" stroke="none">
<path d="M713 905 c-111 -107 -206 -195 -213 -195 -6 0 -63 40 -126 90 -115
90 -116 90 -145 75 l-29 -16 0 -213 0 -214 26 -16 c25 -17 26 -17 132 67 166
130 132 131 274 -8 68 -66 159 -155 204 -198 l81 -78 91 37 92 37 0 374 0 374
-72 33 c-40 18 -82 36 -93 39 -16 5 -60 -32 -222 -188z m165 -336 l-3 -80
-107 76 c-60 42 -108 80 -108 85 0 5 48 43 108 85 l107 76 3 -80 c2 -45 2
-117 0 -162z m-541 24 l-57 -58 0 115 0 115 57 -58 58 -57 -58 -57z"/>
</g>
</svg>
